<?xml version="1.0" encoding="utf-8"?>
<!-- Generator: Adobe Illustrator 20.0.0, SVG Export Plug-In . SVG Version: 6.00 Build 0)  -->
<svg version="1.1" id="Layer_1" xmlns="http://www.w3.org/2000/svg" xmlns:xlink="http://www.w3.org/1999/xlink" x="0px" y="0px"
	 viewBox="0 0 22.7 18.1" style="enable-background:new 0 0 22.7 18.1;" xml:space="preserve">
<title>Asset 1</title>
<g id="Layer_2">
	<g id="Layer_1-2">
		<path d="M18.6,13.8c-0.3,0-0.5-0.2-0.5-0.5V7.8c0-3.7-3-6.8-6.8-6.8S4.6,4,4.6,7.8v5.5c0,0.3-0.2,0.5-0.5,0.5s-0.5-0.2-0.5-0.5
			V7.8C3.6,3.5,7,0,11.3,0s7.8,3.5,7.8,7.8v5.5C19.1,13.5,18.9,13.8,18.6,13.8z"/>
		<path d="M18.8,13.8c-0.3,0-0.5-0.2-0.5-0.5s0.2-0.5,0.5-0.5c1.5,0.1,2.8-1.1,2.9-2.7c-0.1-1.5-1.4-2.7-2.9-2.7
			c-0.3,0-0.5-0.2-0.5-0.5s0.2-0.5,0.5-0.5c2.1-0.1,3.8,1.6,3.9,3.7C22.6,12.2,20.8,13.8,18.8,13.8z"/>
		<path d="M3.9,13.8c-2.1,0.1-3.8-1.6-3.9-3.7C0.1,8,1.8,6.4,3.9,6.4c0.3,0,0.5,0.2,0.5,0.5S4.2,7.4,3.9,7.4C2.4,7.4,1.1,8.5,1,10.1
			c0.1,1.5,1.4,2.7,2.9,2.7c0.3,0,0.5,0.2,0.5,0.5S4.2,13.8,3.9,13.8z"/>
		<path d="M15,17.1c-0.3,0-0.5-0.2-0.5-0.5s0.2-0.5,0.5-0.5c3.1-0.2,3.1-2.4,3.1-2.5c0-0.3,0.2-0.5,0.5-0.5c0,0,0,0,0,0l0,0
			c0.3,0,0.5,0.2,0.5,0.5C19.1,13.6,19.1,16.8,15,17.1L15,17.1z"/>
		<path d="M13.8,15.9c0.3,0,0.6,0.3,0.6,0.6c0,0.3-0.3,0.6-0.6,0.6c-0.3,0-0.6-0.3-0.6-0.6l0,0C13.2,16.2,13.5,15.9,13.8,15.9
			L13.8,15.9 M13.8,14.9c-0.9,0-1.6,0.7-1.6,1.6c0,0.9,0.7,1.6,1.6,1.6s1.6-0.7,1.6-1.6C15.4,15.7,14.7,14.9,13.8,14.9L13.8,14.9z"
			/>
	</g>
</g>
</svg>
