<svg xmlns="http://www.w3.org/2000/svg" width="21.38" height="19.125" viewBox="0 0 21.38 19.125">
  <defs>
    <style>
      .cls-1 {
        fill: #fff;
        fill-rule: evenodd;
      }
    </style>
  </defs>
  <path id="Twitter" class="cls-1" d="M1069.97,610.763a7.985,7.985,0,0,1-2.52.76,4.773,4.773,0,0,0,1.93-2.667,8.693,8.693,0,0,1-2.79,1.174,4.177,4.177,0,0,0-3.19-1.53,4.62,4.62,0,0,0-4.39,4.829,5.6,5.6,0,0,0,.11,1.094,12.1,12.1,0,0,1-9.03-5.037,5.137,5.137,0,0,0-.59,2.428,4.934,4.934,0,0,0,1.95,4.01,4.087,4.087,0,0,1-1.99-.6v0.067a4.747,4.747,0,0,0,3.52,4.734,4.1,4.1,0,0,1-1.16.159,3.411,3.411,0,0,1-.82-0.086,4.438,4.438,0,0,0,4.09,3.352,8.261,8.261,0,0,1-5.44,2.066,7.827,7.827,0,0,1-1.05-.068,11.549,11.549,0,0,0,6.72,2.178c8.07,0,12.48-7.358,12.48-13.738,0-.2-0.01-0.41-0.02-0.617A9.668,9.668,0,0,0,1069.97,610.763Z" transform="translate(-1048.59 -608.5)"/>
</svg>
