<svg xmlns="http://www.w3.org/2000/svg" viewBox="0 0 23.86 24.2"><defs><style>.cls-1{fill:#94619a;}</style></defs><title>Asset 3</title><g id="Layer_2" data-name="Layer 2"><g id="Layer_1-2" data-name="Layer 1"><path class="cls-1" d="M23.36,11.89a.5.5,0,0,1-.5-.5A10.4,10.4,0,0,0,12.47,1a.5.5,0,0,1,0-1A11.4,11.4,0,0,1,23.86,11.39a.5.5,0,0,1-.5.5Z"/><path class="cls-1" d="M20.16,11.89a.5.5,0,0,1-.5-.5A7.2,7.2,0,0,0,12.47,4.2a.5.5,0,0,1,0-1,8.2,8.2,0,0,1,8.19,8.19.5.5,0,0,1-.5.5Z"/><path class="cls-1" d="M4.37,23.62a4.37,4.37,0,0,1-3.09-7.46l2.38-2.38a.5.5,0,0,1,.71.71L2,16.87a3.36,3.36,0,0,0,0,4.76,3.45,3.45,0,0,0,4.77,0l2.38-2.38a.5.5,0,1,1,.71.71L7.46,22.34a4.34,4.34,0,0,1-3.09,1.28Z"/><path class="cls-1" d="M10.23,20.49a.5.5,0,0,1-.42-.23,22.39,22.39,0,0,0-6.45-6.45.5.5,0,0,1-.18-.63l4.37-9.1a.5.5,0,0,1,.72-.2A39.75,39.75,0,0,1,19.75,15.34a.5.5,0,0,1-.2.73l-9.1,4.37a.5.5,0,0,1-.22,0Zm-6-7.27a23.34,23.34,0,0,1,6.13,6.13l8.19-3.94A38.71,38.71,0,0,0,8.21,5L4.27,13.22Z"/><path class="cls-1" d="M9.85,24.2a4,4,0,0,1-2.77-1.25.5.5,0,0,1,.71-.71,3.06,3.06,0,0,0,2.06,1h0a1.38,1.38,0,0,0,1-.37.5.5,0,1,1,.71.71,2.34,2.34,0,0,1-1.7.67Z"/></g></g></svg>