<?xml version="1.0" encoding="utf-8"?>
<!-- Generator: Adobe Illustrator 20.0.0, SVG Export Plug-In . SVG Version: 6.00 Build 0)  -->
<svg version="1.1" id="Layer_1" xmlns="http://www.w3.org/2000/svg" xmlns:xlink="http://www.w3.org/1999/xlink" x="0px" y="0px"
	 viewBox="0 0 23.2 21.1" style="enable-background:new 0 0 23.2 21.1;" xml:space="preserve">
<style type="text/css">
	.st0{fill:none;stroke:#FFFFFF;stroke-miterlimit:10;}
</style>
<title>Asset 4</title>
<g id="Layer_2">
	<g id="Layer_1-2">
		<path class="st0" d="M4.7,20.6H3.9c-0.3,0-0.5-0.3-0.5-0.5c0-0.2,0.1-0.3,0.3-0.4c1.1-0.5,2-1.4,2.7-2.4c-3.6-1.6-5.9-4.6-5.9-7.8
			c0-4.9,5-8.9,11.1-8.9s11.1,4,11.1,8.9s-5,8.9-11.1,8.9H11C9.3,19.8,7,20.6,4.7,20.6L4.7,20.6z M11.6,1.5C6,1.5,1.5,5,1.5,9.4
			c0,3,2.3,5.8,5.8,7.1c0.3,0.1,0.4,0.4,0.3,0.6c0,0,0,0,0,0l-0.1,0.1c-0.1,0.1-0.1,0.2-0.2,0.3c-0.4,0.7-1,1.4-1.6,1.9
			c1.8-0.1,3.5-0.9,4.8-2.2c0.1-0.1,0.2-0.2,0.4-0.1c0.3,0,0.5,0,0.8,0c5.6,0,10.1-3.5,10.1-7.9S17.2,1.5,11.6,1.5z"/>
		<path class="st0" d="M7.2,9.3c0.3,0,0.5,0.2,0.5,0.5s-0.2,0.5-0.5,0.5c-0.3,0-0.5-0.2-0.5-0.5S6.9,9.3,7.2,9.3L7.2,9.3 M7.2,8.3
			c-0.8,0-1.5,0.7-1.5,1.5c0,0.8,0.7,1.5,1.5,1.5s1.5-0.7,1.5-1.5c0,0,0,0,0,0C8.6,8.9,8,8.3,7.2,8.3z"/>
		<path class="st0" d="M11.6,9.3c0.3,0,0.5,0.2,0.5,0.5s-0.2,0.5-0.5,0.5s-0.5-0.2-0.5-0.5S11.4,9.3,11.6,9.3L11.6,9.3 M11.6,8.3
			c-0.8,0-1.5,0.7-1.5,1.5s0.7,1.5,1.5,1.5s1.5-0.7,1.5-1.5l0,0C13.1,8.9,12.4,8.3,11.6,8.3z"/>
		<path class="st0" d="M16.1,9.3c0.3,0,0.5,0.2,0.5,0.5s-0.2,0.5-0.5,0.5s-0.5-0.2-0.5-0.5S15.8,9.3,16.1,9.3L16.1,9.3 M16.1,8.3
			c-0.8,0-1.5,0.7-1.5,1.5s0.7,1.5,1.5,1.5s1.5-0.7,1.5-1.5v0C17.5,8.9,16.9,8.3,16.1,8.3z"/>
	</g>
</g>
</svg>
