<svg xmlns="http://www.w3.org/2000/svg" width="19.56" height="21.156" viewBox="0 0 19.56 21.156">
  <defs>
    <style>
      .cls-1 {
        fill: #fff;
        fill-rule: evenodd;
      }
    </style>
  </defs>
  <path id="Google_" data-name="Google+" class="cls-1" d="M1227.18,611.325V608.5h-1.39v2.822h-2.8v1.41h2.8v2.822h1.39v-2.822h2.8v-1.41h-2.8Zm-4.6-4.233h-5.03a9.178,9.178,0,0,0-2.16.28,4.965,4.965,0,0,0-2.21,1.247,5.12,5.12,0,0,0-1.17,1.77,5.439,5.439,0,0,0-.39,1.951,5,5,0,0,0,.27,1.6,4.536,4.536,0,0,0,.78,1.4,4.011,4.011,0,0,0,1.27.973,3.766,3.766,0,0,0,1.73.381c0.13,0,.26-0.009.39-0.009,0.13-.018.26-0.021,0.39-0.041-0.06.166-.12,0.33-0.16,0.477a1.76,1.76,0,0,0-.08.6,2.292,2.292,0,0,0,.23,1.074c0.16,0.289.32,0.558,0.5,0.82-0.28.017-.6,0.048-0.97,0.084a9.663,9.663,0,0,0-1.2.192,10.463,10.463,0,0,0-1.28.372,6.083,6.083,0,0,0-1.21.626,3.878,3.878,0,0,0-1.47,1.686,4.454,4.454,0,0,0-.41,1.7,3.62,3.62,0,0,0,.32,1.486,3.472,3.472,0,0,0,.98,1.263,4.823,4.823,0,0,0,1.65.892,7.171,7.171,0,0,0,2.3.334,7.764,7.764,0,0,0,2.77-.462,6.284,6.284,0,0,0,2.01-1.192,5.069,5.069,0,0,0,1.22-1.682,4.665,4.665,0,0,0,.41-1.922,4.217,4.217,0,0,0-.17-1.282,3.708,3.708,0,0,0-.45-0.992,4.821,4.821,0,0,0-.66-0.84c-0.25-.255-0.51-0.521-0.76-0.771l-0.88-.786c-0.13-.124-0.27-0.283-0.42-0.455a1.117,1.117,0,0,1-.22-0.743,1.268,1.268,0,0,1,.22-0.774c0.15-.2.3-0.4,0.46-0.591a8.153,8.153,0,0,0,.76-0.7,5.293,5.293,0,0,0,.66-0.829,4.1,4.1,0,0,0,.47-1.051,5.082,5.082,0,0,0,.16-1.364,4.568,4.568,0,0,0-.19-1.384,5.274,5.274,0,0,0-.47-1.075,2.628,2.628,0,0,0-.55-0.558,0.739,0.739,0,0,0-.52-0.294h1.51Zm-3.61,14.583a4.253,4.253,0,0,1,.82.775,2.986,2.986,0,0,1,.48.8,2.542,2.542,0,0,1,.16.937,2.774,2.774,0,0,1-.91,2.127,3.817,3.817,0,0,1-2.67.848,4.793,4.793,0,0,1-3.14-.946,2.976,2.976,0,0,1-1.16-2.444,2.717,2.717,0,0,1,.26-1.243,3.411,3.411,0,0,1,.59-0.844,2.91,2.91,0,0,1,.7-0.508c0.24-.114.42-0.21,0.55-0.257a6.788,6.788,0,0,1,.8-0.248,5.112,5.112,0,0,1,.9-0.179C1217.4,620.5,1217.75,620.715,1218.97,621.675Zm0.02-7.587a1.943,1.943,0,0,1-.52,1.054,2.2,2.2,0,0,1-.74.558,2.055,2.055,0,0,1-.91.227,1.95,1.95,0,0,1-1.35-.517,4.346,4.346,0,0,1-.96-1.27,6.315,6.315,0,0,1-.55-1.623,7.074,7.074,0,0,1-.19-1.55,5.64,5.64,0,0,1,.11-1.1,2.527,2.527,0,0,1,.43-0.972,2.173,2.173,0,0,1,.75-0.664,1.94,1.94,0,0,1,2.28.259,4.206,4.206,0,0,1,.96,1.294,6.635,6.635,0,0,1,.59,1.674,7.778,7.778,0,0,1,.2,1.65A7.018,7.018,0,0,1,1218.99,614.088Z" transform="translate(-1210.41 -607.094)"/>
</svg>
