<svg xmlns="http://www.w3.org/2000/svg" viewBox="0 0 287.21 35.97"><defs><style>.cls-1{fill:#fff;}.cls-2{fill:#b51e85;}.cls-3{fill:#762b8a;}</style></defs><title>Asset 3</title><g id="Layer_2" data-name="Layer 2"><g id="Layer_1-2" data-name="Layer 1"><polygon class="cls-1" points="42.41 9 57.28 9 57.28 12.52 46.72 12.52 46.72 16.16 56.02 16.16 56.02 19.68 46.72 19.68 46.72 23.46 57.42 23.46 57.42 26.98 42.41 26.98 42.41 9"/><path class="cls-1" d="M60.94,13.21h4.28v2A5.48,5.48,0,0,1,69.65,13c3.24,0,5.13,2,5.13,5.11V27H70.49V19.3c0-1.85-1-2.8-2.59-2.8a2.49,2.49,0,0,0-2.67,2.8V27H60.94Z"/><path class="cls-1" d="M79.08,23.07V16.55h-1.8V13.21h1.8V9.69h4.28v3.52h3.55v3.34H83.36v5.88c0,.9.42,1.34,1.38,1.34a4.7,4.7,0,0,0,2.11-.49v3.13a6.79,6.79,0,0,1-3.38.8c-2.62,0-4.39-1-4.39-4.14"/><path class="cls-1" d="M90.22,13.21H94.5V16a4.66,4.66,0,0,1,4.82-3V17h-.23c-2.85,0-4.59,1.57-4.59,4.85V27H90.22Z"/><path class="cls-1" d="M101.57,22.12V13.21h4.28v7.68c0,1.85,1,2.8,2.59,2.8a2.49,2.49,0,0,0,2.68-2.8V13.21h4.28V27h-4.28V25a5.48,5.48,0,0,1-4.42,2.21c-3.24,0-5.13-2-5.13-5.11"/><path class="cls-1" d="M118.11,25.15l1.83-2.57a9.05,9.05,0,0,0,4.76,1.64c1.24,0,1.8-.41,1.8-1v-.05c0-.85-1.47-1.13-3.13-1.59-2.11-.57-4.51-1.47-4.51-4.14v-.05c0-2.8,2.48-4.37,5.52-4.37A11.17,11.17,0,0,1,130,14.6l-1.63,2.7A9.52,9.52,0,0,0,124.31,16c-1,0-1.58.41-1.58,1V17c0,.77,1.44,1.13,3.07,1.64,2.11.64,4.56,1.57,4.56,4.08v.05c0,3.06-2.51,4.44-5.78,4.44a11.24,11.24,0,0,1-6.48-2.08"/><path class="cls-1" d="M134,23.07V16.55h-1.8V13.21H134V9.69h4.28v3.52h3.55v3.34h-3.55v5.88c0,.9.42,1.34,1.38,1.34a4.69,4.69,0,0,0,2.11-.49v3.13a6.79,6.79,0,0,1-3.38.8c-2.62,0-4.39-1-4.39-4.14"/><path class="cls-1" d="M153.87,9h7.69c6.2,0,10.48,3.88,10.48,8.94V18c0,5.06-4.28,9-10.48,9h-7.69Zm4.34,3.57V23.41h3.35c3.55,0,5.94-2.18,5.94-5.37V18c0-3.18-2.39-5.42-5.94-5.42Z"/><path class="cls-1" d="M174.33,23V23c0-3,2.51-4.39,6.09-4.39a11.69,11.69,0,0,1,3.69.57v-.23c0-1.62-1.1-2.52-3.24-2.52a12,12,0,0,0-4.17.75l-1.07-3a14.41,14.41,0,0,1,5.86-1.11,7.4,7.4,0,0,1,5.1,1.54A5.69,5.69,0,0,1,188.22,19v8h-4.14V25.49a6.07,6.07,0,0,1-4.56,1.75c-2.84,0-5.18-1.49-5.18-4.21m9.83-.9v-.69a7.19,7.19,0,0,0-2.73-.51c-1.83,0-3,.67-3,1.9v.05c0,1.05,1,1.67,2.34,1.67,2,0,3.35-1,3.35-2.42"/><path class="cls-1" d="M192.45,23.07V16.55h-1.8V13.21h1.8V9.69h4.28v3.52h3.55v3.34h-3.55v5.88c0,.9.42,1.34,1.38,1.34a4.7,4.7,0,0,0,2.11-.49v3.13a6.79,6.79,0,0,1-3.38.8c-2.62,0-4.39-1-4.39-4.14"/><path class="cls-1" d="M202.45,23V23c0-3,2.51-4.39,6.09-4.39a11.69,11.69,0,0,1,3.69.57v-.23c0-1.62-1.1-2.52-3.24-2.52a12,12,0,0,0-4.17.75l-1.07-3a14.42,14.42,0,0,1,5.86-1.11,7.4,7.4,0,0,1,5.1,1.54A5.69,5.69,0,0,1,216.34,19v8H212.2V25.49a6.07,6.07,0,0,1-4.56,1.75c-2.84,0-5.18-1.49-5.18-4.21m9.83-.9v-.69a7.19,7.19,0,0,0-2.73-.51c-1.83,0-3,.67-3,1.9v.05c0,1.05,1,1.67,2.34,1.67,2,0,3.35-1,3.35-2.42"/><path class="cls-1" d="M219.2,20.17v-.05c0-3.93,3.3-7.17,7.91-7.17a7.77,7.77,0,0,1,6,2.31l-2.62,2.57a4.58,4.58,0,0,0-3.44-1.52,3.66,3.66,0,0,0-3.66,3.75v.05a3.68,3.68,0,0,0,3.83,3.8,5,5,0,0,0,3.46-1.46l2.51,2.31a7.92,7.92,0,0,1-6.17,2.52c-4.53,0-7.86-3.18-7.86-7.12"/><path class="cls-1" d="M235,23V23c0-3,2.51-4.39,6.09-4.39a11.69,11.69,0,0,1,3.69.57v-.23c0-1.62-1.1-2.52-3.24-2.52a12,12,0,0,0-4.17.75l-1.07-3a14.42,14.42,0,0,1,5.86-1.11,7.4,7.4,0,0,1,5.1,1.54A5.69,5.69,0,0,1,248.94,19v8h-4.14V25.49a6.07,6.07,0,0,1-4.56,1.75c-2.84,0-5.18-1.49-5.18-4.21m9.83-.9v-.69a7.19,7.19,0,0,0-2.73-.51c-1.83,0-3,.67-3,1.9v.05c0,1.05,1,1.67,2.34,1.67,2,0,3.35-1,3.35-2.42"/><path class="cls-1" d="M252.68,13.21H257V16a4.66,4.66,0,0,1,4.82-3V17h-.23C258.7,17,257,18.6,257,21.89V27h-4.28Z"/><path class="cls-1" d="M263.57,20.12v-.05A6.72,6.72,0,0,1,270.44,13a6,6,0,0,1,4.7,2.05V8.23h4.28V27h-4.28V25a5.7,5.7,0,0,1-4.7,2.24,6.75,6.75,0,0,1-6.87-7.12m11.63,0v-.05a3.68,3.68,0,1,0-7.35,0v.05a3.68,3.68,0,1,0,7.35,0"/><path class="cls-1" d="M282.81,8.67h-.76V8.21h2.08v.46h-.75v1.84h-.58Zm1.86-.46h.61l.66,1,.67-1h.59v2.31h-.54V9l-.7,1h0l-.7-1v1.56h-.54Z"/><path class="cls-2" d="M15.57,13.53l3.86,2.23v4.45l-3.86,2.23-3.86-2.23V15.76Zm0-4.5L7.82,13.51v9l7.75,4.47,7.75-4.47v-9Z"/><path class="cls-3" d="M15.57,4.5l11.68,6.74V24.73L15.57,31.47,3.9,24.73V11.24Zm0-4.5L0,9V27l15.57,9,15.57-9V9Z"/></g></g></svg>