<svg id="Top_Bar_Nav" data-name="Top Bar Nav" xmlns="http://www.w3.org/2000/svg" width="30" height="8" viewBox="0 0 30 8">
  <metadata><?xpacket begin="﻿" id="W5M0MpCehiHzreSzNTczkc9d"?>
<x:xmpmeta xmlns:x="adobe:ns:meta/" x:xmptk="Adobe XMP Core 5.6-c138 79.159824, 2016/09/14-01:09:01        ">
   <rdf:RDF xmlns:rdf="http://www.w3.org/1999/02/22-rdf-syntax-ns#">
      <rdf:Description rdf:about=""/>
   </rdf:RDF>
</x:xmpmeta>
                                                                                                    
                                                                                                    
                                                                                                    
                                                                                                    
                                                                                                    
                                                                                                    
                                                                                                    
                                                                                                    
                                                                                                    
                                                                                                    
                                                                                                    
                                                                                                    
                                                                                                    
                                                                                                    
                                                                                                    
                                                                                                    
                                                                                                    
                                                                                                    
                                                                                                    
                                                                                                    
                           
<?xpacket end="w"?></metadata>
<defs>
    <style>
      .cls-1 {
        fill: #312e2f;
        fill-rule: evenodd;
      }
    </style>
  </defs>
  <g id="Navigation">
    <g id="HAMBURGER">
      <path id="MENU" class="cls-1" d="M7.08,7.408v-7H5.42L3.579,3.366,1.738,0.405H0.078v7H1.588V2.866L3.539,5.827h0.04L5.55,2.836V7.408H7.08Zm7.229,0V6.038h-3.8V4.567h3.3V3.2h-3.3V1.776H14.26V0.405H8.978v7H14.31Zm8.307,0v-7H21.1V4.717L17.815,0.405H16.394v7h1.521V2.956l3.391,4.452h1.311ZM29.8,4.357V0.405H28.263V4.417A1.448,1.448,0,0,1,26.752,6.1a1.475,1.475,0,0,1-1.511-1.731V0.405H23.7v4a2.779,2.779,0,0,0,3.031,3.111A2.819,2.819,0,0,0,29.8,4.357Z"/>
    </g>
  </g>
</svg>
