<svg xmlns="http://www.w3.org/2000/svg" width="30" height="30" viewBox="0 0 30 30">
  <defs>
    <style>
      .cls-1 {
        fill: #fff;
        fill-rule: evenodd;
      }
    </style>
  </defs>
  <path id="Twitter" class="cls-1" d="M25.971,7.763a7.978,7.978,0,0,1-2.522.76,4.786,4.786,0,0,0,1.934-2.667,8.7,8.7,0,0,1-2.79,1.174A4.19,4.19,0,0,0,19.4,5.5a4.621,4.621,0,0,0-4.384,4.828,5.418,5.418,0,0,0,.11,1.095A12.1,12.1,0,0,1,6.087,6.386,5.187,5.187,0,0,0,5.5,8.814a4.939,4.939,0,0,0,1.951,4.01,4.076,4.076,0,0,1-1.986-.6V12.29a4.748,4.748,0,0,0,3.516,4.734,4.057,4.057,0,0,1-1.158.159A3.4,3.4,0,0,1,7,17.1a4.44,4.44,0,0,0,4.094,3.352,8.264,8.264,0,0,1-5.445,2.066A7.871,7.871,0,0,1,4.6,22.447a11.546,11.546,0,0,0,6.721,2.178c8.063,0,12.474-7.358,12.474-13.737,0-.2,0-0.41-0.014-0.617A9.69,9.69,0,0,0,25.971,7.763Z" transform="translate(-0.281 -0.063)"/>
</svg>
