<svg xmlns="http://www.w3.org/2000/svg" width="30" height="30" viewBox="0 0 30 30">
  <defs>
    <style>
      .cls-1 {
        fill: #fff;
        fill-rule: evenodd;
      }
    </style>
  </defs>
  <path id="Google_" data-name="Google+" class="cls-1" d="M22.184,8.325V5.5h-1.4V8.325h-2.8v1.41h2.8v2.822h1.4V9.735h2.8V8.325h-2.8ZM17.578,4.092H12.551a9.218,9.218,0,0,0-2.159.279A4.952,4.952,0,0,0,8.181,5.619,5.167,5.167,0,0,0,7.012,7.389,5.3,5.3,0,0,0,6.624,9.34a4.909,4.909,0,0,0,.268,1.6,4.4,4.4,0,0,0,.782,1.4,3.915,3.915,0,0,0,1.266.974,3.787,3.787,0,0,0,1.734.38c0.126,0,.255-0.009.388-0.009,0.131-.018.262-0.021,0.388-0.042-0.061.166-.12,0.331-0.164,0.477a1.964,1.964,0,0,0-.075.6,2.241,2.241,0,0,0,.231,1.074,8.769,8.769,0,0,0,.5.82c-0.281.017-.606,0.048-0.976,0.083a9.923,9.923,0,0,0-1.2.192,11.179,11.179,0,0,0-1.282.372,6.065,6.065,0,0,0-1.206.626,3.92,3.92,0,0,0-1.473,1.686,4.469,4.469,0,0,0-.4,1.7,3.612,3.612,0,0,0,.32,1.485A3.487,3.487,0,0,0,6.7,24.027a4.847,4.847,0,0,0,1.647.892,7.214,7.214,0,0,0,2.3.335,7.721,7.721,0,0,0,2.769-.462A6.227,6.227,0,0,0,15.427,23.6a4.927,4.927,0,0,0,1.221-1.683,4.671,4.671,0,0,0,.417-1.922,4.379,4.379,0,0,0-.172-1.281,3.916,3.916,0,0,0-.453-0.992,4.839,4.839,0,0,0-.655-0.84c-0.251-.255-0.512-0.521-0.768-0.772l-0.878-.786c-0.131-.124-0.268-0.283-0.416-0.455a1.116,1.116,0,0,1-.217-0.743,1.265,1.265,0,0,1,.217-0.774c0.149-.2.3-0.4,0.46-0.591a10.078,10.078,0,0,0,.761-0.7,5.244,5.244,0,0,0,.655-0.829,3.9,3.9,0,0,0,.468-1.051,4.9,4.9,0,0,0,.164-1.364,4.492,4.492,0,0,0-.194-1.385,5.542,5.542,0,0,0-.462-1.074A2.724,2.724,0,0,0,15.016,5.8,0.733,0.733,0,0,0,14.5,5.5h1.512ZM13.966,18.676a4.218,4.218,0,0,1,.828.775,3.013,3.013,0,0,1,.477.8,2.584,2.584,0,0,1,.157.937,2.761,2.761,0,0,1-.909,2.127,3.812,3.812,0,0,1-2.672.848,4.784,4.784,0,0,1-3.135-.945,2.988,2.988,0,0,1-1.162-2.444,2.708,2.708,0,0,1,.261-1.243,3.28,3.28,0,0,1,.6-0.845A2.975,2.975,0,0,1,9.1,18.18c0.239-.115.419-0.21,0.55-0.258a6.759,6.759,0,0,1,.8-0.248,5.168,5.168,0,0,1,.9-0.179C12.4,17.495,12.745,17.715,13.966,18.676Zm0.023-7.588a2,2,0,0,1-.515,1.054,2.217,2.217,0,0,1-.744.558,2.065,2.065,0,0,1-.908.227,1.955,1.955,0,0,1-1.354-.517,4.3,4.3,0,0,1-.953-1.27,6.646,6.646,0,0,1-.559-1.624,7.24,7.24,0,0,1-.187-1.549,5.353,5.353,0,0,1,.112-1.1A2.591,2.591,0,0,1,9.305,5.9a2.177,2.177,0,0,1,.759-0.664,1.918,1.918,0,0,1,.946-0.256,1.954,1.954,0,0,1,1.333.515,4.287,4.287,0,0,1,.96,1.294,6.937,6.937,0,0,1,.589,1.674,7.68,7.68,0,0,1,.194,1.651A6.708,6.708,0,0,1,13.989,11.088Z" transform="translate(-0.188 0.328)"/>
</svg>
