<svg xmlns="http://www.w3.org/2000/svg" width="30" height="30" viewBox="0 0 30 30">
  <defs>
    <style>
      .cls-1 {
        fill: #fff;
        fill-rule: evenodd;
      }
    </style>
  </defs>
  <path id="LinkedIn" class="cls-1" d="M6.785,9.011a2.476,2.476,0,1,0,.031-4.934,2.475,2.475,0,1,0-.063,4.934H6.785Zm9.437,16.227V16.774c0-1.411.681-2.822,2.019-2.822,1.757,0,2.019.9,2.019,2.822v8.464h5.384V16.774c0-4.386-2.194-6.349-5.384-6.349-2.616,0-3.375,1.632-4.013,2.606h0.031l0.1-3.311H10.838V25.238h5.384Zm-6.73,0V9.72H4.109V25.238H9.492Z" transform="translate(0.125 0.344)"/>
</svg>
